<svg width="51" height="51" viewBox="0 0 51 51" fill="none" xmlns="http://www.w3.org/2000/svg">
<path fill-rule="evenodd" clip-rule="evenodd" d="M25.4978 0.849976C11.8877 0.849976 0.850098 11.8861 0.850098 25.5008C0.850098 36.3902 7.91241 45.63 17.7076 48.891C18.941 49.1164 19.3904 48.3555 19.3904 47.7016C19.3904 47.1158 19.3692 45.5664 19.3571 43.5098C12.5006 44.999 11.0539 40.205 11.0539 40.205C9.93259 37.3571 8.31646 36.5989 8.31646 36.5989C6.07838 35.0706 8.48595 35.1009 8.48595 35.1009C10.9601 35.275 12.2615 37.6417 12.2615 37.6417C14.4602 41.4079 18.0315 40.3199 19.4358 39.6889C19.6597 38.097 20.2968 37.0103 21.0005 36.3946C15.527 35.771 9.77221 33.6572 9.77221 24.2115C9.77221 21.5194 10.7331 19.3207 12.3099 17.5971C12.0557 16.9737 11.2098 14.4677 12.552 11.0735C12.552 11.0735 14.6206 10.4106 19.3298 13.5991C21.2956 13.0528 23.405 12.7804 25.5008 12.7698C27.5952 12.7804 29.7031 13.0528 31.6719 13.5991C36.3781 10.4106 38.4436 11.0735 38.4436 11.0735C39.7889 14.4677 38.943 16.9737 38.6904 17.5971C40.27 19.3207 41.2234 21.5194 41.2234 24.2115C41.2234 33.6814 35.4594 35.7653 29.9695 36.3749C30.8532 37.1361 31.6416 38.6403 31.6416 40.9404C31.6416 44.2347 31.6113 46.8935 31.6113 47.7016C31.6113 48.3612 32.0562 49.1286 33.3062 48.8879C43.0937 45.6208 50.1501 36.3885 50.1501 25.5008C50.1501 11.8861 39.1123 0.849976 25.4978 0.849976Z" fill="#D89FDD"/>
</svg>
