<svg width="51" height="51" viewBox="0 0 51 51" fill="none" xmlns="http://www.w3.org/2000/svg">
<path fill-rule="evenodd" clip-rule="evenodd" d="M6.7999 3.40002C4.92215 3.40002 3.3999 4.92227 3.3999 6.80002V44.2C3.3999 46.0778 4.92215 47.6 6.7999 47.6H44.1999C46.0777 47.6 47.5999 46.0778 47.5999 44.2V6.80002C47.5999 4.92227 46.0777 3.40002 44.1999 3.40002H6.7999ZM10.3699 20.4H16.8299V40.8H10.3699V20.4ZM17.2549 13.617C17.2549 15.6356 15.6185 17.272 13.5999 17.272C11.5813 17.272 9.9449 15.6356 9.9449 13.617C9.9449 11.5984 11.5813 9.96202 13.5999 9.96202C15.6185 9.96202 17.2549 11.5984 17.2549 13.617ZM40.7999 28.4143C40.7999 22.2771 36.8335 19.8911 32.8932 19.8911C31.603 19.8276 30.3184 20.0981 29.1676 20.6757C28.2938 21.1143 27.3789 22.1178 26.6734 23.863H26.492V20.4015H20.3999V40.816H26.8808V29.9581C26.7871 28.8461 27.143 27.4089 27.8711 26.5536C28.5992 25.6983 29.6407 25.4941 30.4304 25.3903H30.6767C32.7376 25.3903 34.2671 26.6663 34.2671 29.8815V40.816H40.7479L40.7999 28.4143Z" fill="#D89FDD"/>
</svg>
