<svg width="51" height="51" viewBox="0 0 51 51" fill="none" xmlns="http://www.w3.org/2000/svg">
<path d="M34.1704 14.0887C34.0217 13.8762 33.8517 13.685 33.6817 13.515H33.6604C33.0017 12.8562 32.1942 12.3462 31.3017 12.0487L28.3692 11.0925C28.1567 11.0075 27.9442 10.8587 27.8167 10.6675C27.6679 10.4762 27.6042 10.2425 27.6042 10.0087C27.6042 9.77497 27.6679 9.54122 27.8167 9.34997C27.9442 9.15872 28.1354 9.00997 28.3692 8.92497L31.3017 7.96872C32.1942 7.67122 32.9804 7.16122 33.6392 6.50247C34.2554 5.86497 34.7442 5.07872 35.0629 4.22872V4.16497L36.0192 1.23247C36.1042 1.01997 36.2529 0.807468 36.4442 0.679968C36.6354 0.531218 36.8692 0.467468 37.1029 0.467468C37.3367 0.467468 37.5704 0.552468 37.7617 0.679968C37.9529 0.807468 38.1017 0.998718 38.1867 1.23247L39.1429 4.16497C39.4404 5.05747 39.9504 5.86497 40.6092 6.52372C41.2679 7.20372 42.0754 7.69247 42.9679 7.98997L45.9004 8.94622H45.9642C46.1767 9.03122 46.3679 9.17997 46.5167 9.37122C46.6654 9.56247 46.7292 9.79622 46.7292 10.03C46.7292 10.2637 46.6654 10.4975 46.5167 10.6887C46.3892 10.88 46.1979 11.0287 45.9642 11.1137L43.0317 12.07C42.1392 12.3675 41.3317 12.8775 40.6729 13.5362C39.9929 14.195 39.5042 15.0025 39.2067 15.895L38.2292 18.8275V18.8912C38.1442 19.0825 37.9954 19.2525 37.8254 19.38C37.6342 19.5287 37.4004 19.5925 37.1667 19.5925C36.9329 19.5925 36.6992 19.5287 36.5079 19.38C36.3167 19.2525 36.1679 19.0612 36.0829 18.8275L35.1267 15.895C34.9142 15.2362 34.5954 14.62 34.1704 14.0887ZM50.5329 22.1638L48.8967 21.6538C48.3867 21.4838 47.9404 21.2075 47.5792 20.8462C47.2179 20.4637 46.9417 20.0175 46.7717 19.5287L46.2404 17.9137C46.1979 17.7862 46.1129 17.68 46.0067 17.595C45.9004 17.51 45.7729 17.4675 45.6454 17.4675C45.5179 17.4675 45.3904 17.51 45.2842 17.595C45.1779 17.68 45.0929 17.7862 45.0504 17.9137L44.5192 19.5287C44.3704 20.0175 44.0942 20.4637 43.7329 20.825C43.3717 21.1862 42.9254 21.4625 42.4367 21.6325L40.8004 22.1638C40.6729 22.2063 40.5667 22.2913 40.4817 22.3975C40.3967 22.5038 40.3542 22.6313 40.3542 22.7588C40.3542 22.8863 40.3967 23.0138 40.4817 23.12C40.5667 23.2263 40.6729 23.3113 40.8004 23.3538L42.4367 23.885C42.9254 24.0338 43.3929 24.3313 43.7542 24.6925C44.1154 25.0538 44.3917 25.5213 44.5617 26.01L45.0929 27.625C45.1354 27.7525 45.2204 27.8588 45.3267 27.9438C45.4329 28.0288 45.5604 28.0713 45.6879 28.0713C45.8154 28.0713 45.9429 28.0288 46.0492 27.9438C46.1554 27.8588 46.2404 27.7525 46.2829 27.625L46.8142 26.01C46.9842 25.5 47.2604 25.0538 47.6217 24.6925C48.0042 24.3313 48.4504 24.055 48.9392 23.885L50.5754 23.3538C50.7029 23.3113 50.8092 23.2263 50.8942 23.12C50.9792 23.0138 51 22.8863 51 22.7588C51 22.6313 50.9792 22.5038 50.8942 22.3975C50.8102 22.2926 50.6681 22.2294 50.5329 22.1638ZM41.5225 27.0088L42.075 28.7088C42.1812 29.0063 42.33 29.24 42.5 29.495V42.415C42.5 45.05 40.3538 47.1963 37.7188 47.1963H13.2812C10.6462 47.1963 8.5 45.05 8.5 42.415V9.47745C8.5 6.84245 10.6462 4.6962 13.2812 4.6962H30.8338C30.685 4.7812 30.515 4.8662 30.3662 4.92995L27.3487 5.90745C26.4987 6.2262 25.755 6.75745 25.245 7.5012C24.7138 8.24495 24.4375 9.09495 24.4375 10.0087C24.4375 10.9224 24.7137 11.7937 25.2237 12.5162C25.3889 12.7548 25.6018 12.9459 25.8073 13.1304C25.8396 13.1596 25.8719 13.1885 25.9037 13.2174H16.4688C15.5975 13.2174 14.875 13.9399 14.875 14.8112C14.875 15.6824 15.5975 16.4049 16.4688 16.4049H31.8537C31.8773 16.4462 31.9024 16.4873 31.9279 16.529C31.9944 16.6377 32.0626 16.7495 32.1087 16.8724L33.0862 19.8687C33.3837 20.7187 33.9362 21.4413 34.68 21.9725C35.4237 22.4825 36.295 22.7588 37.1875 22.7588C37.1875 23.545 37.4212 24.31 37.8887 24.9688C38.3562 25.6275 38.9937 26.095 39.8225 26.3925L41.5225 27.0088ZM16.4688 37.6338H34.5312C35.4025 37.6338 36.125 36.9113 36.125 36.04C36.125 35.1688 35.4025 34.4463 34.5312 34.4463H16.4688C15.5975 34.4463 14.875 35.1688 14.875 36.04C14.875 36.9113 15.5975 37.6338 16.4688 37.6338ZM16.4688 27.0088H34.5312C35.4025 27.0088 36.125 26.2863 36.125 25.415C36.125 24.5438 35.4025 23.8213 34.5312 23.8213H16.4688C15.5975 23.8213 14.875 24.5438 14.875 25.415C14.875 26.2863 15.5975 27.0088 16.4688 27.0088Z" fill="#D89FDD"/>
</svg>
